<mxfile host="65bd71144e">
    <diagram id="lL9a2N68W7SlsQVTANbN" name="第 1 页">
        <mxGraphModel dx="4598" dy="2280" grid="0" gridSize="10" guides="1" tooltips="1" connect="1" arrows="1" fold="1" page="1" pageScale="1" pageWidth="4000" pageHeight="4000" background="#FFFFFF" math="0" shadow="0">
            <root>
                <mxCell id="0"/>
                <mxCell id="1" parent="0"/>
                <mxCell id="2" value="Dcache0" style="whiteSpace=wrap;html=1;fontFamily=Helvetica;fontSize=11;fontColor=default;" parent="1" vertex="1">
                    <mxGeometry x="1891" y="1612" width="230" height="160" as="geometry"/>
                </mxCell>
                <mxCell id="3" value="chi_master" style="whiteSpace=wrap;html=1;fontFamily=Helvetica;fontSize=11;fontColor=default;" parent="1" vertex="1">
                    <mxGeometry x="1941" y="1752" width="120" height="20" as="geometry"/>
                </mxCell>
                <mxCell id="4" value="xbar_4" style="whiteSpace=wrap;html=1;fontFamily=Helvetica;fontSize=11;fontColor=default;" parent="1" vertex="1">
                    <mxGeometry x="1971" y="1897" width="380" height="200" as="geometry"/>
                </mxCell>
                <mxCell id="5" value="Icache" style="whiteSpace=wrap;html=1;fontFamily=Helvetica;fontSize=11;fontColor=default;" parent="1" vertex="1">
                    <mxGeometry x="1541" y="1612" width="230" height="160" as="geometry"/>
                </mxCell>
                <mxCell id="6" value="chi_master" style="whiteSpace=wrap;html=1;fontFamily=Helvetica;fontSize=11;fontColor=default;" parent="1" vertex="1">
                    <mxGeometry x="1591" y="1752" width="120" height="20" as="geometry"/>
                </mxCell>
                <mxCell id="7" value="valid-ready" style="text;html=1;align=center;verticalAlign=middle;resizable=0;points=[];autosize=1;strokeColor=none;fillColor=none;fontSize=11;fontFamily=Helvetica;fontColor=default;" parent="1" vertex="1">
                    <mxGeometry x="1961" y="1702" width="80" height="30" as="geometry"/>
                </mxCell>
                <mxCell id="8" value="lcrdv" style="text;html=1;align=center;verticalAlign=middle;resizable=0;points=[];autosize=1;strokeColor=none;fillColor=none;fontSize=11;fontFamily=Helvetica;fontColor=default;" parent="1" vertex="1">
                    <mxGeometry x="1976" y="1772" width="50" height="30" as="geometry"/>
                </mxCell>
                <mxCell id="9" value="chi_slave" style="whiteSpace=wrap;html=1;fontFamily=Helvetica;fontSize=11;fontColor=default;" parent="1" vertex="1">
                    <mxGeometry x="1991" y="1897" width="120" height="20" as="geometry"/>
                </mxCell>
                <mxCell id="10" value="chi2flit" style="whiteSpace=wrap;html=1;fontFamily=Helvetica;fontSize=11;fontColor=default;" parent="1" vertex="1">
                    <mxGeometry x="1591" y="1732" width="120" height="20" as="geometry"/>
                </mxCell>
                <mxCell id="11" value="chi2flit" style="whiteSpace=wrap;html=1;fontFamily=Helvetica;fontSize=11;fontColor=default;" parent="1" vertex="1">
                    <mxGeometry x="1941" y="1732" width="120" height="20" as="geometry"/>
                </mxCell>
                <mxCell id="12" value="flit2chi" style="whiteSpace=wrap;html=1;fontFamily=Helvetica;fontSize=11;fontColor=default;" parent="1" vertex="1">
                    <mxGeometry x="1991" y="1917" width="120" height="20" as="geometry"/>
                </mxCell>
                <mxCell id="13" value="valid-ready" style="text;html=1;align=center;verticalAlign=middle;resizable=0;points=[];autosize=1;strokeColor=none;fillColor=none;fontSize=11;fontFamily=Helvetica;fontColor=default;" parent="1" vertex="1">
                    <mxGeometry x="1616" y="1702" width="80" height="30" as="geometry"/>
                </mxCell>
                <mxCell id="14" value="lcrdv" style="text;html=1;align=center;verticalAlign=middle;resizable=0;points=[];autosize=1;strokeColor=none;fillColor=none;fontSize=11;fontFamily=Helvetica;fontColor=default;" parent="1" vertex="1">
                    <mxGeometry x="1606" y="1772" width="50" height="30" as="geometry"/>
                </mxCell>
                <mxCell id="15" value="lcrdv" style="text;html=1;align=center;verticalAlign=middle;resizable=0;points=[];autosize=1;strokeColor=none;fillColor=none;fontSize=11;fontFamily=Helvetica;fontColor=default;" parent="1" vertex="1">
                    <mxGeometry x="2041" y="1867" width="50" height="30" as="geometry"/>
                </mxCell>
                <mxCell id="16" value="valid-ready" style="text;html=1;align=center;verticalAlign=middle;resizable=0;points=[];autosize=1;strokeColor=none;fillColor=none;fontSize=11;fontFamily=Helvetica;fontColor=default;" parent="1" vertex="1">
                    <mxGeometry x="2011" y="1927" width="80" height="30" as="geometry"/>
                </mxCell>
                <mxCell id="17" value="chi_slave" style="whiteSpace=wrap;html=1;fontFamily=Helvetica;fontSize=11;fontColor=default;" parent="1" vertex="1">
                    <mxGeometry x="2211" y="1897" width="120" height="20" as="geometry"/>
                </mxCell>
                <mxCell id="18" value="flit2chi" style="whiteSpace=wrap;html=1;fontFamily=Helvetica;fontSize=11;fontColor=default;" parent="1" vertex="1">
                    <mxGeometry x="2211" y="1917" width="120" height="20" as="geometry"/>
                </mxCell>
                <mxCell id="19" value="lcrdv" style="text;html=1;align=center;verticalAlign=middle;resizable=0;points=[];autosize=1;strokeColor=none;fillColor=none;fontSize=11;fontFamily=Helvetica;fontColor=default;" parent="1" vertex="1">
                    <mxGeometry x="2231" y="1867" width="50" height="30" as="geometry"/>
                </mxCell>
                <mxCell id="20" value="valid-ready" style="text;html=1;align=center;verticalAlign=middle;resizable=0;points=[];autosize=1;strokeColor=none;fillColor=none;fontSize=11;fontFamily=Helvetica;fontColor=default;" parent="1" vertex="1">
                    <mxGeometry x="2231" y="1927" width="80" height="30" as="geometry"/>
                </mxCell>
                <mxCell id="21" value="chi_master" style="whiteSpace=wrap;html=1;fontFamily=Helvetica;fontSize=11;fontColor=default;" parent="1" vertex="1">
                    <mxGeometry x="2101" y="2077" width="120" height="20" as="geometry"/>
                </mxCell>
                <mxCell id="22" value="valid-ready" style="text;html=1;align=center;verticalAlign=middle;resizable=0;points=[];autosize=1;strokeColor=none;fillColor=none;fontSize=11;fontFamily=Helvetica;fontColor=default;" parent="1" vertex="1">
                    <mxGeometry x="2121" y="2027" width="80" height="30" as="geometry"/>
                </mxCell>
                <mxCell id="23" value="lcrdv" style="text;html=1;align=center;verticalAlign=middle;resizable=0;points=[];autosize=1;strokeColor=none;fillColor=none;fontSize=11;fontFamily=Helvetica;fontColor=default;" parent="1" vertex="1">
                    <mxGeometry x="2136" y="2097" width="50" height="30" as="geometry"/>
                </mxCell>
                <mxCell id="24" value="chi2flit" style="whiteSpace=wrap;html=1;fontFamily=Helvetica;fontSize=11;fontColor=default;" parent="1" vertex="1">
                    <mxGeometry x="2101" y="2057" width="120" height="20" as="geometry"/>
                </mxCell>
                <mxCell id="26" value="xbar_2" style="whiteSpace=wrap;html=1;fontFamily=Helvetica;fontSize=11;fontColor=default;" parent="1" vertex="1">
                    <mxGeometry x="1646" y="2272" width="380" height="200" as="geometry"/>
                </mxCell>
                <mxCell id="27" value="chi_slave" style="whiteSpace=wrap;html=1;fontFamily=Helvetica;fontSize=11;fontColor=default;" parent="1" vertex="1">
                    <mxGeometry x="1666" y="2272" width="120" height="20" as="geometry"/>
                </mxCell>
                <mxCell id="28" value="flit2chi" style="whiteSpace=wrap;html=1;fontFamily=Helvetica;fontSize=11;fontColor=default;" parent="1" vertex="1">
                    <mxGeometry x="1666" y="2292" width="120" height="20" as="geometry"/>
                </mxCell>
                <mxCell id="29" value="lcrdv" style="text;html=1;align=center;verticalAlign=middle;resizable=0;points=[];autosize=1;strokeColor=none;fillColor=none;fontSize=11;fontFamily=Helvetica;fontColor=default;" parent="1" vertex="1">
                    <mxGeometry x="1716" y="2242" width="50" height="30" as="geometry"/>
                </mxCell>
                <mxCell id="30" value="valid-ready" style="text;html=1;align=center;verticalAlign=middle;resizable=0;points=[];autosize=1;strokeColor=none;fillColor=none;fontSize=11;fontFamily=Helvetica;fontColor=default;" parent="1" vertex="1">
                    <mxGeometry x="1686" y="2302" width="80" height="30" as="geometry"/>
                </mxCell>
                <mxCell id="31" value="chi_slave" style="whiteSpace=wrap;html=1;fontFamily=Helvetica;fontSize=11;fontColor=default;" parent="1" vertex="1">
                    <mxGeometry x="1886" y="2272" width="120" height="20" as="geometry"/>
                </mxCell>
                <mxCell id="32" value="flit2chi" style="whiteSpace=wrap;html=1;fontFamily=Helvetica;fontSize=11;fontColor=default;" parent="1" vertex="1">
                    <mxGeometry x="1886" y="2292" width="120" height="20" as="geometry"/>
                </mxCell>
                <mxCell id="33" value="lcrdv" style="text;html=1;align=center;verticalAlign=middle;resizable=0;points=[];autosize=1;strokeColor=none;fillColor=none;fontSize=11;fontFamily=Helvetica;fontColor=default;" parent="1" vertex="1">
                    <mxGeometry x="1906" y="2242" width="50" height="30" as="geometry"/>
                </mxCell>
                <mxCell id="34" value="valid-ready" style="text;html=1;align=center;verticalAlign=middle;resizable=0;points=[];autosize=1;strokeColor=none;fillColor=none;fontSize=11;fontFamily=Helvetica;fontColor=default;" parent="1" vertex="1">
                    <mxGeometry x="1906" y="2302" width="80" height="30" as="geometry"/>
                </mxCell>
                <mxCell id="35" style="edgeStyle=none;html=1;exitX=0.5;exitY=1;exitDx=0;exitDy=0;" parent="1" source="36" target="98" edge="1">
                    <mxGeometry relative="1" as="geometry"/>
                </mxCell>
                <mxCell id="36" value="chi_master" style="whiteSpace=wrap;html=1;fontFamily=Helvetica;fontSize=11;fontColor=default;" parent="1" vertex="1">
                    <mxGeometry x="1776" y="2452" width="120" height="20" as="geometry"/>
                </mxCell>
                <mxCell id="37" value="valid-ready" style="text;html=1;align=center;verticalAlign=middle;resizable=0;points=[];autosize=1;strokeColor=none;fillColor=none;fontSize=11;fontFamily=Helvetica;fontColor=default;" parent="1" vertex="1">
                    <mxGeometry x="1796" y="2402" width="80" height="30" as="geometry"/>
                </mxCell>
                <mxCell id="38" value="chi2flit" style="whiteSpace=wrap;html=1;fontFamily=Helvetica;fontSize=11;fontColor=default;" parent="1" vertex="1">
                    <mxGeometry x="1776" y="2432" width="120" height="20" as="geometry"/>
                </mxCell>
                <mxCell id="39" value="chi2axi" style="whiteSpace=wrap;html=1;fontFamily=Helvetica;fontSize=11;fontColor=default;" parent="1" vertex="1">
                    <mxGeometry x="1216" y="3082" width="290" height="130" as="geometry"/>
                </mxCell>
                <mxCell id="40" value="PTW" style="whiteSpace=wrap;html=1;fontFamily=Helvetica;fontSize=11;fontColor=default;" parent="1" vertex="1">
                    <mxGeometry x="1226" y="1612" width="230" height="160" as="geometry"/>
                </mxCell>
                <mxCell id="41" value="chi_master" style="whiteSpace=wrap;html=1;fontFamily=Helvetica;fontSize=11;fontColor=default;" parent="1" vertex="1">
                    <mxGeometry x="1276" y="1752" width="120" height="20" as="geometry"/>
                </mxCell>
                <mxCell id="42" value="chi2flit" style="whiteSpace=wrap;html=1;fontFamily=Helvetica;fontSize=11;fontColor=default;" parent="1" vertex="1">
                    <mxGeometry x="1276" y="1732" width="120" height="20" as="geometry"/>
                </mxCell>
                <mxCell id="43" value="valid-ready" style="text;html=1;align=center;verticalAlign=middle;resizable=0;points=[];autosize=1;strokeColor=none;fillColor=none;fontSize=11;fontFamily=Helvetica;fontColor=default;" parent="1" vertex="1">
                    <mxGeometry x="1301" y="1702" width="80" height="30" as="geometry"/>
                </mxCell>
                <mxCell id="44" value="lcrdv" style="text;html=1;align=center;verticalAlign=middle;resizable=0;points=[];autosize=1;strokeColor=none;fillColor=none;fontSize=11;fontFamily=Helvetica;fontColor=default;" parent="1" vertex="1">
                    <mxGeometry x="1301" y="1772" width="50" height="30" as="geometry"/>
                </mxCell>
                <mxCell id="45" value="Dcache1" style="whiteSpace=wrap;html=1;fontFamily=Helvetica;fontSize=11;fontColor=default;" parent="1" vertex="1">
                    <mxGeometry x="2211" y="1612" width="230" height="160" as="geometry"/>
                </mxCell>
                <mxCell id="46" value="chi_master" style="whiteSpace=wrap;html=1;fontFamily=Helvetica;fontSize=11;fontColor=default;" parent="1" vertex="1">
                    <mxGeometry x="2261" y="1752" width="120" height="20" as="geometry"/>
                </mxCell>
                <mxCell id="47" value="chi2flit" style="whiteSpace=wrap;html=1;fontFamily=Helvetica;fontSize=11;fontColor=default;" parent="1" vertex="1">
                    <mxGeometry x="2261" y="1732" width="120" height="20" as="geometry"/>
                </mxCell>
                <mxCell id="48" value="valid-ready" style="text;html=1;align=center;verticalAlign=middle;resizable=0;points=[];autosize=1;strokeColor=none;fillColor=none;fontSize=11;fontFamily=Helvetica;fontColor=default;" parent="1" vertex="1">
                    <mxGeometry x="2286" y="1702" width="80" height="30" as="geometry"/>
                </mxCell>
                <mxCell id="49" value="lcrdv" style="text;html=1;align=center;verticalAlign=middle;resizable=0;points=[];autosize=1;strokeColor=none;fillColor=none;fontSize=11;fontFamily=Helvetica;fontColor=default;" parent="1" vertex="1">
                    <mxGeometry x="2286" y="1772" width="50" height="30" as="geometry"/>
                </mxCell>
                <mxCell id="50" value="" style="edgeStyle=segmentEdgeStyle;endArrow=classic;html=1;curved=0;rounded=0;endSize=8;startSize=8;sourcePerimeterSpacing=0;targetPerimeterSpacing=0;exitX=0.5;exitY=1;exitDx=0;exitDy=0;entryX=0.5;entryY=0;entryDx=0;entryDy=0;" parent="1" source="3" target="9" edge="1">
                    <mxGeometry width="100" relative="1" as="geometry">
                        <mxPoint x="1941" y="1832" as="sourcePoint"/>
                        <mxPoint x="2041" y="1872" as="targetPoint"/>
                        <Array as="points">
                            <mxPoint x="2001" y="1872"/>
                            <mxPoint x="2051" y="1872"/>
                        </Array>
                    </mxGeometry>
                </mxCell>
                <mxCell id="51" value="" style="edgeStyle=segmentEdgeStyle;endArrow=classic;html=1;curved=0;rounded=0;endSize=8;startSize=8;sourcePerimeterSpacing=0;targetPerimeterSpacing=0;exitX=0.727;exitY=0.011;exitDx=0;exitDy=0;entryX=0.5;entryY=0;entryDx=0;entryDy=0;exitPerimeter=0;" parent="1" source="49" target="17" edge="1">
                    <mxGeometry width="100" relative="1" as="geometry">
                        <mxPoint x="2311" y="1772" as="sourcePoint"/>
                        <mxPoint x="2361" y="1897" as="targetPoint"/>
                        <Array as="points">
                            <mxPoint x="2321" y="1772"/>
                            <mxPoint x="2321" y="1872"/>
                            <mxPoint x="2271" y="1872"/>
                        </Array>
                    </mxGeometry>
                </mxCell>
                <mxCell id="52" value="Ducache" style="whiteSpace=wrap;html=1;fontFamily=Helvetica;fontSize=11;fontColor=default;" parent="1" vertex="1">
                    <mxGeometry x="931" y="1612" width="230" height="160" as="geometry"/>
                </mxCell>
                <mxCell id="53" value="chi_master" style="whiteSpace=wrap;html=1;fontFamily=Helvetica;fontSize=11;fontColor=default;" parent="1" vertex="1">
                    <mxGeometry x="981" y="1752" width="120" height="20" as="geometry"/>
                </mxCell>
                <mxCell id="54" value="Iucache" style="whiteSpace=wrap;html=1;fontFamily=Helvetica;fontSize=11;fontColor=default;" parent="1" vertex="1">
                    <mxGeometry x="616" y="1612" width="230" height="160" as="geometry"/>
                </mxCell>
                <mxCell id="55" value="chi_master" style="whiteSpace=wrap;html=1;fontFamily=Helvetica;fontSize=11;fontColor=default;" parent="1" vertex="1">
                    <mxGeometry x="666" y="1752" width="120" height="20" as="geometry"/>
                </mxCell>
                <mxCell id="56" value="valid-ready" style="text;html=1;align=center;verticalAlign=middle;resizable=0;points=[];autosize=1;strokeColor=none;fillColor=none;fontSize=11;fontFamily=Helvetica;fontColor=default;" parent="1" vertex="1">
                    <mxGeometry x="1001" y="1702" width="80" height="30" as="geometry"/>
                </mxCell>
                <mxCell id="57" value="chi2flit" style="whiteSpace=wrap;html=1;fontFamily=Helvetica;fontSize=11;fontColor=default;" parent="1" vertex="1">
                    <mxGeometry x="666" y="1732" width="120" height="20" as="geometry"/>
                </mxCell>
                <mxCell id="58" value="chi2flit" style="whiteSpace=wrap;html=1;fontFamily=Helvetica;fontSize=11;fontColor=default;" parent="1" vertex="1">
                    <mxGeometry x="981" y="1732" width="120" height="20" as="geometry"/>
                </mxCell>
                <mxCell id="59" value="valid-ready" style="text;html=1;align=center;verticalAlign=middle;resizable=0;points=[];autosize=1;strokeColor=none;fillColor=none;fontSize=11;fontFamily=Helvetica;fontColor=default;" parent="1" vertex="1">
                    <mxGeometry x="691" y="1702" width="80" height="30" as="geometry"/>
                </mxCell>
                <mxCell id="60" value="" style="edgeStyle=segmentEdgeStyle;endArrow=classic;html=1;curved=0;rounded=0;endSize=8;startSize=8;sourcePerimeterSpacing=0;targetPerimeterSpacing=0;exitX=0.5;exitY=1;exitDx=0;exitDy=0;entryX=0.5;entryY=0;entryDx=0;entryDy=0;" parent="1" target="31" edge="1">
                    <mxGeometry width="100" relative="1" as="geometry">
                        <mxPoint x="2161" y="2097" as="sourcePoint"/>
                        <mxPoint x="2211" y="2222" as="targetPoint"/>
                        <Array as="points">
                            <mxPoint x="2161" y="2192"/>
                            <mxPoint x="1946" y="2192"/>
                        </Array>
                    </mxGeometry>
                </mxCell>
                <mxCell id="61" value="xbar_1" style="whiteSpace=wrap;html=1;fontFamily=Helvetica;fontSize=11;fontColor=default;" parent="1" vertex="1">
                    <mxGeometry x="1306" y="1897" width="380" height="200" as="geometry"/>
                </mxCell>
                <mxCell id="62" value="chi_slave" style="whiteSpace=wrap;html=1;fontFamily=Helvetica;fontSize=11;fontColor=default;" parent="1" vertex="1">
                    <mxGeometry x="1326" y="1897" width="120" height="20" as="geometry"/>
                </mxCell>
                <mxCell id="63" value="flit2chi" style="whiteSpace=wrap;html=1;fontFamily=Helvetica;fontSize=11;fontColor=default;" parent="1" vertex="1">
                    <mxGeometry x="1326" y="1917" width="120" height="20" as="geometry"/>
                </mxCell>
                <mxCell id="64" value="lcrdv" style="text;html=1;align=center;verticalAlign=middle;resizable=0;points=[];autosize=1;strokeColor=none;fillColor=none;fontSize=11;fontFamily=Helvetica;fontColor=default;" parent="1" vertex="1">
                    <mxGeometry x="1376" y="1867" width="50" height="30" as="geometry"/>
                </mxCell>
                <mxCell id="65" value="valid-ready" style="text;html=1;align=center;verticalAlign=middle;resizable=0;points=[];autosize=1;strokeColor=none;fillColor=none;fontSize=11;fontFamily=Helvetica;fontColor=default;" parent="1" vertex="1">
                    <mxGeometry x="1346" y="1927" width="80" height="30" as="geometry"/>
                </mxCell>
                <mxCell id="66" value="chi_slave" style="whiteSpace=wrap;html=1;fontFamily=Helvetica;fontSize=11;fontColor=default;" parent="1" vertex="1">
                    <mxGeometry x="1546" y="1897" width="120" height="20" as="geometry"/>
                </mxCell>
                <mxCell id="67" value="flit2chi" style="whiteSpace=wrap;html=1;fontFamily=Helvetica;fontSize=11;fontColor=default;" parent="1" vertex="1">
                    <mxGeometry x="1546" y="1917" width="120" height="20" as="geometry"/>
                </mxCell>
                <mxCell id="68" value="lcrdv" style="text;html=1;align=center;verticalAlign=middle;resizable=0;points=[];autosize=1;strokeColor=none;fillColor=none;fontSize=11;fontFamily=Helvetica;fontColor=default;" parent="1" vertex="1">
                    <mxGeometry x="1566" y="1867" width="50" height="30" as="geometry"/>
                </mxCell>
                <mxCell id="69" value="valid-ready" style="text;html=1;align=center;verticalAlign=middle;resizable=0;points=[];autosize=1;strokeColor=none;fillColor=none;fontSize=11;fontFamily=Helvetica;fontColor=default;" parent="1" vertex="1">
                    <mxGeometry x="1566" y="1927" width="80" height="30" as="geometry"/>
                </mxCell>
                <mxCell id="70" value="chi_master" style="whiteSpace=wrap;html=1;fontFamily=Helvetica;fontSize=11;fontColor=default;" parent="1" vertex="1">
                    <mxGeometry x="1436" y="2077" width="120" height="20" as="geometry"/>
                </mxCell>
                <mxCell id="71" value="valid-ready" style="text;html=1;align=center;verticalAlign=middle;resizable=0;points=[];autosize=1;strokeColor=none;fillColor=none;fontSize=11;fontFamily=Helvetica;fontColor=default;" parent="1" vertex="1">
                    <mxGeometry x="1456" y="2027" width="80" height="30" as="geometry"/>
                </mxCell>
                <mxCell id="72" value="lcrdv" style="text;html=1;align=center;verticalAlign=middle;resizable=0;points=[];autosize=1;strokeColor=none;fillColor=none;fontSize=11;fontFamily=Helvetica;fontColor=default;" parent="1" vertex="1">
                    <mxGeometry x="1421" y="2097" width="50" height="30" as="geometry"/>
                </mxCell>
                <mxCell id="73" value="chi2flit" style="whiteSpace=wrap;html=1;fontFamily=Helvetica;fontSize=11;fontColor=default;" parent="1" vertex="1">
                    <mxGeometry x="1436" y="2057" width="120" height="20" as="geometry"/>
                </mxCell>
                <mxCell id="74" value="" style="edgeStyle=segmentEdgeStyle;endArrow=classic;html=1;curved=0;rounded=0;endSize=8;startSize=8;sourcePerimeterSpacing=0;targetPerimeterSpacing=0;exitX=0.5;exitY=1;exitDx=0;exitDy=0;entryX=0.5;entryY=0;entryDx=0;entryDy=0;" parent="1" target="62" edge="1">
                    <mxGeometry width="100" relative="1" as="geometry">
                        <mxPoint x="1336" y="1772" as="sourcePoint"/>
                        <mxPoint x="1376" y="1872" as="targetPoint"/>
                        <Array as="points">
                            <mxPoint x="1336" y="1872"/>
                            <mxPoint x="1386" y="1872"/>
                        </Array>
                    </mxGeometry>
                </mxCell>
                <mxCell id="75" value="" style="edgeStyle=segmentEdgeStyle;endArrow=classic;html=1;curved=0;rounded=0;endSize=8;startSize=8;sourcePerimeterSpacing=0;targetPerimeterSpacing=0;exitX=0.727;exitY=0.011;exitDx=0;exitDy=0;entryX=0.5;entryY=0;entryDx=0;entryDy=0;exitPerimeter=0;" parent="1" target="66" edge="1">
                    <mxGeometry width="100" relative="1" as="geometry">
                        <mxPoint x="1657.3500000000004" y="1772.3299999999995" as="sourcePoint"/>
                        <mxPoint x="1696" y="1897" as="targetPoint"/>
                        <Array as="points">
                            <mxPoint x="1656" y="1772"/>
                            <mxPoint x="1656" y="1872"/>
                            <mxPoint x="1606" y="1872"/>
                        </Array>
                    </mxGeometry>
                </mxCell>
                <mxCell id="76" value="" style="edgeStyle=segmentEdgeStyle;endArrow=classic;html=1;curved=0;rounded=0;endSize=8;startSize=8;sourcePerimeterSpacing=0;targetPerimeterSpacing=0;entryX=0.5;entryY=0;entryDx=0;entryDy=0;exitX=0.5;exitY=1;exitDx=0;exitDy=0;" parent="1" source="70" target="27" edge="1">
                    <mxGeometry width="100" relative="1" as="geometry">
                        <mxPoint x="1481" y="2142" as="sourcePoint"/>
                        <mxPoint x="1801" y="2352" as="targetPoint"/>
                        <Array as="points">
                            <mxPoint x="1496" y="2192"/>
                            <mxPoint x="1726" y="2192"/>
                        </Array>
                    </mxGeometry>
                </mxCell>
                <mxCell id="77" value="lcrdv" style="text;html=1;align=center;verticalAlign=middle;resizable=0;points=[];autosize=1;strokeColor=none;fillColor=none;fontSize=11;fontFamily=Helvetica;fontColor=default;" parent="1" vertex="1">
                    <mxGeometry x="1006" y="1772" width="50" height="30" as="geometry"/>
                </mxCell>
                <mxCell id="78" value="lcrdv" style="text;html=1;align=center;verticalAlign=middle;resizable=0;points=[];autosize=1;strokeColor=none;fillColor=none;fontSize=11;fontFamily=Helvetica;fontColor=default;" parent="1" vertex="1">
                    <mxGeometry x="676" y="1772" width="50" height="30" as="geometry"/>
                </mxCell>
                <mxCell id="79" value="xbar_0" style="whiteSpace=wrap;html=1;fontFamily=Helvetica;fontSize=11;fontColor=default;" parent="1" vertex="1">
                    <mxGeometry x="696" y="1897" width="380" height="200" as="geometry"/>
                </mxCell>
                <mxCell id="80" value="chi_slave" style="whiteSpace=wrap;html=1;fontFamily=Helvetica;fontSize=11;fontColor=default;" parent="1" vertex="1">
                    <mxGeometry x="716" y="1897" width="120" height="20" as="geometry"/>
                </mxCell>
                <mxCell id="81" value="flit2chi" style="whiteSpace=wrap;html=1;fontFamily=Helvetica;fontSize=11;fontColor=default;" parent="1" vertex="1">
                    <mxGeometry x="716" y="1917" width="120" height="20" as="geometry"/>
                </mxCell>
                <mxCell id="82" value="lcrdv" style="text;html=1;align=center;verticalAlign=middle;resizable=0;points=[];autosize=1;strokeColor=none;fillColor=none;fontSize=11;fontFamily=Helvetica;fontColor=default;" parent="1" vertex="1">
                    <mxGeometry x="766" y="1867" width="50" height="30" as="geometry"/>
                </mxCell>
                <mxCell id="83" value="valid-ready" style="text;html=1;align=center;verticalAlign=middle;resizable=0;points=[];autosize=1;strokeColor=none;fillColor=none;fontSize=11;fontFamily=Helvetica;fontColor=default;" parent="1" vertex="1">
                    <mxGeometry x="736" y="1927" width="80" height="30" as="geometry"/>
                </mxCell>
                <mxCell id="84" value="chi_slave" style="whiteSpace=wrap;html=1;fontFamily=Helvetica;fontSize=11;fontColor=default;" parent="1" vertex="1">
                    <mxGeometry x="936" y="1897" width="120" height="20" as="geometry"/>
                </mxCell>
                <mxCell id="85" value="flit2chi" style="whiteSpace=wrap;html=1;fontFamily=Helvetica;fontSize=11;fontColor=default;" parent="1" vertex="1">
                    <mxGeometry x="936" y="1917" width="120" height="20" as="geometry"/>
                </mxCell>
                <mxCell id="86" value="lcrdv" style="text;html=1;align=center;verticalAlign=middle;resizable=0;points=[];autosize=1;strokeColor=none;fillColor=none;fontSize=11;fontFamily=Helvetica;fontColor=default;" parent="1" vertex="1">
                    <mxGeometry x="956" y="1867" width="50" height="30" as="geometry"/>
                </mxCell>
                <mxCell id="87" value="valid-ready" style="text;html=1;align=center;verticalAlign=middle;resizable=0;points=[];autosize=1;strokeColor=none;fillColor=none;fontSize=11;fontFamily=Helvetica;fontColor=default;" parent="1" vertex="1">
                    <mxGeometry x="956" y="1927" width="80" height="30" as="geometry"/>
                </mxCell>
                <mxCell id="88" value="chi_master" style="whiteSpace=wrap;html=1;fontFamily=Helvetica;fontSize=11;fontColor=default;" parent="1" vertex="1">
                    <mxGeometry x="826" y="2077" width="120" height="20" as="geometry"/>
                </mxCell>
                <mxCell id="89" value="valid-ready" style="text;html=1;align=center;verticalAlign=middle;resizable=0;points=[];autosize=1;strokeColor=none;fillColor=none;fontSize=11;fontFamily=Helvetica;fontColor=default;" parent="1" vertex="1">
                    <mxGeometry x="846" y="2027" width="80" height="30" as="geometry"/>
                </mxCell>
                <mxCell id="90" value="lcrdv" style="text;html=1;align=center;verticalAlign=middle;resizable=0;points=[];autosize=1;strokeColor=none;fillColor=none;fontSize=11;fontFamily=Helvetica;fontColor=default;" parent="1" vertex="1">
                    <mxGeometry x="811" y="2097" width="50" height="30" as="geometry"/>
                </mxCell>
                <mxCell id="91" value="chi2flit" style="whiteSpace=wrap;html=1;fontFamily=Helvetica;fontSize=11;fontColor=default;" parent="1" vertex="1">
                    <mxGeometry x="826" y="2057" width="120" height="20" as="geometry"/>
                </mxCell>
                <mxCell id="92" value="" style="edgeStyle=segmentEdgeStyle;endArrow=classic;html=1;curved=0;rounded=0;endSize=8;startSize=8;sourcePerimeterSpacing=0;targetPerimeterSpacing=0;exitX=0.5;exitY=1;exitDx=0;exitDy=0;entryX=0.5;entryY=0;entryDx=0;entryDy=0;" parent="1" target="80" edge="1">
                    <mxGeometry width="100" relative="1" as="geometry">
                        <mxPoint x="726" y="1772" as="sourcePoint"/>
                        <mxPoint x="766" y="1872" as="targetPoint"/>
                        <Array as="points">
                            <mxPoint x="726" y="1872"/>
                            <mxPoint x="776" y="1872"/>
                        </Array>
                    </mxGeometry>
                </mxCell>
                <mxCell id="93" value="" style="edgeStyle=segmentEdgeStyle;endArrow=classic;html=1;curved=0;rounded=0;endSize=8;startSize=8;sourcePerimeterSpacing=0;targetPerimeterSpacing=0;exitX=0.727;exitY=0.011;exitDx=0;exitDy=0;entryX=0.5;entryY=0;entryDx=0;entryDy=0;exitPerimeter=0;" parent="1" target="84" edge="1">
                    <mxGeometry width="100" relative="1" as="geometry">
                        <mxPoint x="1047.3500000000008" y="1772.3299999999995" as="sourcePoint"/>
                        <mxPoint x="1086" y="1897" as="targetPoint"/>
                        <Array as="points">
                            <mxPoint x="1046" y="1772"/>
                            <mxPoint x="1046" y="1872"/>
                            <mxPoint x="996" y="1872"/>
                        </Array>
                    </mxGeometry>
                </mxCell>
                <mxCell id="94" value="scache" style="whiteSpace=wrap;html=1;fontFamily=Helvetica;fontSize=11;fontColor=default;" parent="1" vertex="1">
                    <mxGeometry x="1716" y="2552" width="230" height="160" as="geometry"/>
                </mxCell>
                <mxCell id="95" value="chi_master" style="whiteSpace=wrap;html=1;fontFamily=Helvetica;fontSize=11;fontColor=default;" parent="1" vertex="1">
                    <mxGeometry x="1771" y="2692" width="120" height="20" as="geometry"/>
                </mxCell>
                <mxCell id="96" value="valid-ready" style="text;html=1;align=center;verticalAlign=middle;resizable=0;points=[];autosize=1;strokeColor=none;fillColor=none;fontSize=11;fontFamily=Helvetica;fontColor=default;" parent="1" vertex="1">
                    <mxGeometry x="1796" y="2642" width="80" height="30" as="geometry"/>
                </mxCell>
                <mxCell id="97" value="chi2flit" style="whiteSpace=wrap;html=1;fontFamily=Helvetica;fontSize=11;fontColor=default;" parent="1" vertex="1">
                    <mxGeometry x="1771" y="2672" width="120" height="20" as="geometry"/>
                </mxCell>
                <mxCell id="98" value="chi_slave" style="whiteSpace=wrap;html=1;fontFamily=Helvetica;fontSize=11;fontColor=default;" parent="1" vertex="1">
                    <mxGeometry x="1776" y="2552" width="120" height="20" as="geometry"/>
                </mxCell>
                <mxCell id="99" value="flit2chi" style="whiteSpace=wrap;html=1;fontFamily=Helvetica;fontSize=11;fontColor=default;" parent="1" vertex="1">
                    <mxGeometry x="1776" y="2572" width="120" height="20" as="geometry"/>
                </mxCell>
                <mxCell id="100" value="valid-ready" style="text;html=1;align=center;verticalAlign=middle;resizable=0;points=[];autosize=1;strokeColor=none;fillColor=none;fontSize=11;fontFamily=Helvetica;fontColor=default;" parent="1" vertex="1">
                    <mxGeometry x="1796" y="2582" width="80" height="30" as="geometry"/>
                </mxCell>
                <mxCell id="101" value="xbar_3" style="whiteSpace=wrap;html=1;fontFamily=Helvetica;fontSize=11;fontColor=default;" parent="1" vertex="1">
                    <mxGeometry x="1171" y="2802" width="380" height="200" as="geometry"/>
                </mxCell>
                <mxCell id="102" value="chi_slave" style="whiteSpace=wrap;html=1;fontFamily=Helvetica;fontSize=11;fontColor=default;" parent="1" vertex="1">
                    <mxGeometry x="1191" y="2802" width="120" height="20" as="geometry"/>
                </mxCell>
                <mxCell id="103" value="flit2chi" style="whiteSpace=wrap;html=1;fontFamily=Helvetica;fontSize=11;fontColor=default;" parent="1" vertex="1">
                    <mxGeometry x="1191" y="2822" width="120" height="20" as="geometry"/>
                </mxCell>
                <mxCell id="104" value="valid-ready" style="text;html=1;align=center;verticalAlign=middle;resizable=0;points=[];autosize=1;strokeColor=none;fillColor=none;fontSize=11;fontFamily=Helvetica;fontColor=default;" parent="1" vertex="1">
                    <mxGeometry x="1211" y="2832" width="80" height="30" as="geometry"/>
                </mxCell>
                <mxCell id="105" value="chi_slave" style="whiteSpace=wrap;html=1;fontFamily=Helvetica;fontSize=11;fontColor=default;" parent="1" vertex="1">
                    <mxGeometry x="1411" y="2802" width="120" height="20" as="geometry"/>
                </mxCell>
                <mxCell id="106" value="flit2chi" style="whiteSpace=wrap;html=1;fontFamily=Helvetica;fontSize=11;fontColor=default;" parent="1" vertex="1">
                    <mxGeometry x="1411" y="2822" width="120" height="20" as="geometry"/>
                </mxCell>
                <mxCell id="107" value="valid-ready" style="text;html=1;align=center;verticalAlign=middle;resizable=0;points=[];autosize=1;strokeColor=none;fillColor=none;fontSize=11;fontFamily=Helvetica;fontColor=default;" parent="1" vertex="1">
                    <mxGeometry x="1431" y="2832" width="80" height="30" as="geometry"/>
                </mxCell>
                <mxCell id="108" style="edgeStyle=none;html=1;exitX=0.5;exitY=1;exitDx=0;exitDy=0;" parent="1" source="109" edge="1">
                    <mxGeometry relative="1" as="geometry">
                        <mxPoint x="1361" y="3082" as="targetPoint"/>
                    </mxGeometry>
                </mxCell>
                <mxCell id="109" value="chi_master" style="whiteSpace=wrap;html=1;fontFamily=Helvetica;fontSize=11;fontColor=default;" parent="1" vertex="1">
                    <mxGeometry x="1301" y="2982" width="120" height="20" as="geometry"/>
                </mxCell>
                <mxCell id="110" value="valid-ready" style="text;html=1;align=center;verticalAlign=middle;resizable=0;points=[];autosize=1;strokeColor=none;fillColor=none;fontSize=11;fontFamily=Helvetica;fontColor=default;" parent="1" vertex="1">
                    <mxGeometry x="1321" y="2932" width="80" height="30" as="geometry"/>
                </mxCell>
                <mxCell id="111" value="chi2flit" style="whiteSpace=wrap;html=1;fontFamily=Helvetica;fontSize=11;fontColor=default;" parent="1" vertex="1">
                    <mxGeometry x="1301" y="2962" width="120" height="20" as="geometry"/>
                </mxCell>
                <mxCell id="112" value="" style="edgeStyle=segmentEdgeStyle;endArrow=classic;html=1;curved=0;rounded=0;endSize=8;startSize=8;sourcePerimeterSpacing=0;targetPerimeterSpacing=0;exitX=0.5;exitY=1;exitDx=0;exitDy=0;entryX=0.5;entryY=0;entryDx=0;entryDy=0;" parent="1" source="88" target="102" edge="1">
                    <mxGeometry width="100" relative="1" as="geometry">
                        <mxPoint x="861" y="2182" as="sourcePoint"/>
                        <mxPoint x="961" y="2222" as="targetPoint"/>
                        <Array as="points">
                            <mxPoint x="881" y="2097"/>
                            <mxPoint x="881" y="2762"/>
                            <mxPoint x="1251" y="2762"/>
                        </Array>
                    </mxGeometry>
                </mxCell>
                <mxCell id="113" value="" style="edgeStyle=segmentEdgeStyle;endArrow=classic;html=1;curved=0;rounded=0;endSize=8;startSize=8;sourcePerimeterSpacing=0;targetPerimeterSpacing=0;exitX=0.5;exitY=1;exitDx=0;exitDy=0;entryX=0.5;entryY=0;entryDx=0;entryDy=0;" parent="1" source="95" target="105" edge="1">
                    <mxGeometry width="100" relative="1" as="geometry">
                        <mxPoint x="1811" y="2832" as="sourcePoint"/>
                        <mxPoint x="1911" y="2872" as="targetPoint"/>
                        <Array as="points">
                            <mxPoint x="1831" y="2762"/>
                            <mxPoint x="1471" y="2762"/>
                        </Array>
                    </mxGeometry>
                </mxCell>
                <mxCell id="114" value="chi_slave" style="whiteSpace=wrap;html=1;fontFamily=Helvetica;fontSize=11;fontColor=default;" parent="1" vertex="1">
                    <mxGeometry x="1301" y="3082" width="120" height="20" as="geometry"/>
                </mxCell>
                <mxCell id="115" value="flit2chi" style="whiteSpace=wrap;html=1;fontFamily=Helvetica;fontSize=11;fontColor=default;" parent="1" vertex="1">
                    <mxGeometry x="1301" y="3102" width="120" height="20" as="geometry"/>
                </mxCell>
                <mxCell id="118" value="REQ" style="whiteSpace=wrap;html=1;" parent="1" vertex="1">
                    <mxGeometry x="2735" y="3420" width="120" height="60" as="geometry"/>
                </mxCell>
                <mxCell id="119" value="RDAT" style="whiteSpace=wrap;html=1;" parent="1" vertex="1">
                    <mxGeometry x="3610" y="3420" width="120" height="60" as="geometry"/>
                </mxCell>
                <mxCell id="124" value="REQ" style="whiteSpace=wrap;html=1;" parent="1" vertex="1">
                    <mxGeometry x="2735" y="3610" width="120" height="60" as="geometry"/>
                </mxCell>
                <mxCell id="125" value="RDAT" style="whiteSpace=wrap;html=1;" parent="1" vertex="1">
                    <mxGeometry x="3610" y="3610" width="120" height="60" as="geometry"/>
                </mxCell>
                <mxCell id="133" value="lcrdv沟通" style="text;html=1;align=center;verticalAlign=middle;resizable=0;points=[];autosize=1;strokeColor=none;fillColor=none;" parent="1" vertex="1">
                    <mxGeometry x="2725" y="3530" width="70" height="30" as="geometry"/>
                </mxCell>
                <mxCell id="134" value="REQ" style="whiteSpace=wrap;html=1;" parent="1" vertex="1">
                    <mxGeometry x="2735" y="3220" width="120" height="60" as="geometry"/>
                </mxCell>
                <mxCell id="135" value="RDAT" style="whiteSpace=wrap;html=1;" parent="1" vertex="1">
                    <mxGeometry x="3610" y="3220" width="120" height="60" as="geometry"/>
                </mxCell>
                <mxCell id="141" value="valid-ready" style="text;html=1;align=center;verticalAlign=middle;resizable=0;points=[];autosize=1;strokeColor=none;fillColor=none;" parent="1" vertex="1">
                    <mxGeometry x="2714.29" y="3330" width="80" height="30" as="geometry"/>
                </mxCell>
                <mxCell id="142" value="REQ" style="whiteSpace=wrap;html=1;" parent="1" vertex="1">
                    <mxGeometry x="2735" y="3820" width="120" height="60" as="geometry"/>
                </mxCell>
                <mxCell id="143" value="RDAT" style="whiteSpace=wrap;html=1;" parent="1" vertex="1">
                    <mxGeometry x="3610" y="3820" width="120" height="60" as="geometry"/>
                </mxCell>
                <mxCell id="149" value="valid-ready" style="text;html=1;align=center;verticalAlign=middle;resizable=0;points=[];autosize=1;strokeColor=none;fillColor=none;" parent="1" vertex="1">
                    <mxGeometry x="2714.29" y="3740" width="80" height="30" as="geometry"/>
                </mxCell>
                <mxCell id="150" value="对上有接收空闲entry&lt;br&gt;即可回复lcrdv&lt;br&gt;buffer深度为15，则无需计数器" style="text;html=1;align=center;verticalAlign=middle;resizable=0;points=[];autosize=1;strokeColor=none;fillColor=none;" parent="1" vertex="1">
                    <mxGeometry x="2545" y="3580" width="190" height="60" as="geometry"/>
                </mxCell>
                <mxCell id="151" value="对下需要计算剩余lcrdv数量&lt;br&gt;不为零即可提供出队ready，fire一减一&lt;br&gt;为零时不可出队" style="text;html=1;align=center;verticalAlign=middle;resizable=0;points=[];autosize=1;strokeColor=none;fillColor=none;" parent="1" vertex="1">
                    <mxGeometry x="2515" y="3450" width="230" height="60" as="geometry"/>
                </mxCell>
                <mxCell id="152" value="对下可以直接发valid，fire自动出队" style="text;html=1;align=center;verticalAlign=middle;resizable=0;points=[];autosize=1;strokeColor=none;fillColor=none;" parent="1" vertex="1">
                    <mxGeometry x="2535" y="3685" width="210" height="30" as="geometry"/>
                </mxCell>
                <mxCell id="154" value="对上若fifo未满则可提供ready&lt;br&gt;fire即可入队" style="text;html=1;align=center;verticalAlign=middle;resizable=0;points=[];autosize=1;strokeColor=none;fillColor=none;" parent="1" vertex="1">
                    <mxGeometry x="2545" y="3380" width="180" height="40" as="geometry"/>
                </mxCell>
                <mxCell id="155" value="" style="swimlane;startSize=0;" parent="1" vertex="1">
                    <mxGeometry x="2445" y="3380" width="535" height="140" as="geometry"/>
                </mxCell>
                <mxCell id="130" value="valid2lcrdv" style="text;html=1;align=center;verticalAlign=middle;resizable=0;points=[];autosize=1;strokeColor=none;fillColor=none;" parent="155" vertex="1">
                    <mxGeometry x="-5" y="30" width="80" height="30" as="geometry"/>
                </mxCell>
                <mxCell id="186" value="1" style="ellipse;whiteSpace=wrap;html=1;" parent="155" vertex="1">
                    <mxGeometry x="435" y="80" width="45" height="45" as="geometry"/>
                </mxCell>
                <mxCell id="193" value="4" style="ellipse;whiteSpace=wrap;html=1;" parent="155" vertex="1">
                    <mxGeometry x="435" y="5" width="45" height="45" as="geometry"/>
                </mxCell>
                <mxCell id="212" value="scache2flit" style="text;html=1;align=center;verticalAlign=middle;resizable=0;points=[];autosize=1;strokeColor=none;fillColor=none;" parent="155" vertex="1">
                    <mxGeometry x="-5" y="60" width="80" height="30" as="geometry"/>
                </mxCell>
                <mxCell id="156" value="" style="swimlane;startSize=0;" parent="1" vertex="1">
                    <mxGeometry x="2445" y="3575" width="525" height="140" as="geometry"/>
                </mxCell>
                <mxCell id="131" value="lcrdv2valid" style="text;html=1;align=center;verticalAlign=middle;resizable=0;points=[];autosize=1;strokeColor=none;fillColor=none;" parent="156" vertex="1">
                    <mxGeometry y="35" width="80" height="30" as="geometry"/>
                </mxCell>
                <mxCell id="188" value="2" style="ellipse;whiteSpace=wrap;html=1;" parent="156" vertex="1">
                    <mxGeometry x="435" y="20" width="45" height="45" as="geometry"/>
                </mxCell>
                <mxCell id="191" value="3" style="ellipse;whiteSpace=wrap;html=1;" parent="156" vertex="1">
                    <mxGeometry x="435" y="95" width="45" height="45" as="geometry"/>
                </mxCell>
                <mxCell id="213" value="flit2scache" style="text;html=1;align=center;verticalAlign=middle;resizable=0;points=[];autosize=1;strokeColor=none;fillColor=none;" parent="156" vertex="1">
                    <mxGeometry y="85" width="80" height="30" as="geometry"/>
                </mxCell>
                <mxCell id="157" value="" style="shape=curlyBracket;whiteSpace=wrap;html=1;rounded=1;flipH=1;labelPosition=right;verticalLabelPosition=middle;align=left;verticalAlign=middle;" parent="1" vertex="1">
                    <mxGeometry x="2410" y="3390" width="20" height="120" as="geometry"/>
                </mxCell>
                <mxCell id="158" value="enq_valid：input" style="text;html=1;align=center;verticalAlign=middle;resizable=0;points=[];autosize=1;strokeColor=none;fillColor=none;" parent="1" vertex="1">
                    <mxGeometry x="2250" y="3375" width="110" height="30" as="geometry"/>
                </mxCell>
                <mxCell id="159" value="enq_ready：fifo未满" style="text;html=1;align=center;verticalAlign=middle;resizable=0;points=[];autosize=1;strokeColor=none;fillColor=none;" parent="1" vertex="1">
                    <mxGeometry x="2240" y="3405" width="130" height="30" as="geometry"/>
                </mxCell>
                <mxCell id="160" value="deq_valid：fifo非空" style="text;html=1;align=center;verticalAlign=middle;resizable=0;points=[];autosize=1;strokeColor=none;fillColor=none;" parent="1" vertex="1">
                    <mxGeometry x="2240" y="3470" width="130" height="30" as="geometry"/>
                </mxCell>
                <mxCell id="161" value="deq_ready：有lcrdv" style="text;html=1;align=center;verticalAlign=middle;resizable=0;points=[];autosize=1;strokeColor=none;fillColor=none;" parent="1" vertex="1">
                    <mxGeometry x="2240" y="3500" width="130" height="30" as="geometry"/>
                </mxCell>
                <mxCell id="162" value="" style="shape=curlyBracket;whiteSpace=wrap;html=1;rounded=1;flipH=1;labelPosition=right;verticalLabelPosition=middle;align=left;verticalAlign=middle;" parent="1" vertex="1">
                    <mxGeometry x="2410" y="3582.5" width="20" height="120" as="geometry"/>
                </mxCell>
                <mxCell id="163" value="enq_valid：input" style="text;html=1;align=center;verticalAlign=middle;resizable=0;points=[];autosize=1;strokeColor=none;fillColor=none;" parent="1" vertex="1">
                    <mxGeometry x="2250" y="3567.5" width="110" height="30" as="geometry"/>
                </mxCell>
                <mxCell id="164" value="enq_ready：fifo未满" style="text;html=1;align=center;verticalAlign=middle;resizable=0;points=[];autosize=1;strokeColor=none;fillColor=none;" parent="1" vertex="1">
                    <mxGeometry x="2240" y="3597.5" width="130" height="30" as="geometry"/>
                </mxCell>
                <mxCell id="165" value="deq_valid：fifo非空" style="text;html=1;align=center;verticalAlign=middle;resizable=0;points=[];autosize=1;strokeColor=none;fillColor=none;" parent="1" vertex="1">
                    <mxGeometry x="2240" y="3662.5" width="130" height="30" as="geometry"/>
                </mxCell>
                <mxCell id="166" value="deq_ready：input" style="text;html=1;align=center;verticalAlign=middle;resizable=0;points=[];autosize=1;strokeColor=none;fillColor=none;" parent="1" vertex="1">
                    <mxGeometry x="2245" y="3692.5" width="120" height="30" as="geometry"/>
                </mxCell>
                <mxCell id="170" value="valid-ready" style="text;html=1;align=center;verticalAlign=middle;resizable=0;points=[];autosize=1;strokeColor=none;fillColor=none;" parent="1" vertex="1">
                    <mxGeometry x="3590" y="3330" width="80" height="30" as="geometry"/>
                </mxCell>
                <mxCell id="176" value="valid-ready" style="text;html=1;align=center;verticalAlign=middle;resizable=0;points=[];autosize=1;strokeColor=none;fillColor=none;" parent="1" vertex="1">
                    <mxGeometry x="3590" y="3740" width="80" height="30" as="geometry"/>
                </mxCell>
                <mxCell id="177" value="对上若fifo非空则自然出队" style="text;html=1;align=center;verticalAlign=middle;resizable=0;points=[];autosize=1;strokeColor=none;fillColor=none;" parent="1" vertex="1">
                    <mxGeometry x="3390" y="3375" width="160" height="30" as="geometry"/>
                </mxCell>
                <mxCell id="179" value="lcrdv" style="text;html=1;align=center;verticalAlign=middle;resizable=0;points=[];autosize=1;strokeColor=none;fillColor=none;" parent="1" vertex="1">
                    <mxGeometry x="3585" y="3525" width="50" height="30" as="geometry"/>
                </mxCell>
                <mxCell id="180" value="对下有接收空闲entry&lt;br&gt;即可回复lcrdv&lt;br&gt;buffer深度为15，则无需计数器" style="text;html=1;align=center;verticalAlign=middle;resizable=0;points=[];autosize=1;strokeColor=none;fillColor=none;" parent="1" vertex="1">
                    <mxGeometry x="3380" y="3460" width="190" height="60" as="geometry"/>
                </mxCell>
                <mxCell id="181" value="对上需要计算剩余lcrdv数量&lt;br&gt;不为零即可提供出队ready，fire一减一&lt;br&gt;为零时不可出队" style="text;html=1;align=center;verticalAlign=middle;resizable=0;points=[];autosize=1;strokeColor=none;fillColor=none;" parent="1" vertex="1">
                    <mxGeometry x="3350" y="3580" width="230" height="60" as="geometry"/>
                </mxCell>
                <mxCell id="187" value="1" style="ellipse;whiteSpace=wrap;html=1;" parent="1" vertex="1">
                    <mxGeometry x="3790" y="3590" width="45" height="45" as="geometry"/>
                </mxCell>
                <mxCell id="189" value="2" style="ellipse;whiteSpace=wrap;html=1;" parent="1" vertex="1">
                    <mxGeometry x="3790" y="3460" width="45" height="45" as="geometry"/>
                </mxCell>
                <mxCell id="192" value="3" style="ellipse;whiteSpace=wrap;html=1;" parent="1" vertex="1">
                    <mxGeometry x="3790" y="3380" width="45" height="45" as="geometry"/>
                </mxCell>
                <mxCell id="194" value="4" style="ellipse;whiteSpace=wrap;html=1;" parent="1" vertex="1">
                    <mxGeometry x="3790" y="3662.5" width="45" height="45" as="geometry"/>
                </mxCell>
                <mxCell id="195" value="master对下若fifo未满则可提供ready&lt;br&gt;fire即可入队" style="text;html=1;align=center;verticalAlign=middle;resizable=0;points=[];autosize=1;strokeColor=none;fillColor=none;" parent="1" vertex="1">
                    <mxGeometry x="3365" y="3670" width="210" height="40" as="geometry"/>
                </mxCell>
                <mxCell id="196" value="" style="shape=curlyBracket;whiteSpace=wrap;html=1;rounded=1;flipH=1;labelPosition=right;verticalLabelPosition=middle;align=left;verticalAlign=middle;" parent="1" vertex="1">
                    <mxGeometry x="3320" y="3390" width="20" height="120" as="geometry"/>
                </mxCell>
                <mxCell id="197" value="enq_valid：input" style="text;html=1;align=center;verticalAlign=middle;resizable=0;points=[];autosize=1;strokeColor=none;fillColor=none;" parent="1" vertex="1">
                    <mxGeometry x="3160" y="3465" width="110" height="30" as="geometry"/>
                </mxCell>
                <mxCell id="198" value="enq_ready：fifo未满" style="text;html=1;align=center;verticalAlign=middle;resizable=0;points=[];autosize=1;strokeColor=none;fillColor=none;" parent="1" vertex="1">
                    <mxGeometry x="3150" y="3495" width="130" height="30" as="geometry"/>
                </mxCell>
                <mxCell id="199" value="deq_valid：fifo非空" style="text;html=1;align=center;verticalAlign=middle;resizable=0;points=[];autosize=1;strokeColor=none;fillColor=none;" parent="1" vertex="1">
                    <mxGeometry x="3150" y="3370" width="130" height="30" as="geometry"/>
                </mxCell>
                <mxCell id="200" value="deq_ready：input" style="text;html=1;align=center;verticalAlign=middle;resizable=0;points=[];autosize=1;strokeColor=none;fillColor=none;" parent="1" vertex="1">
                    <mxGeometry x="3155" y="3400" width="120" height="30" as="geometry"/>
                </mxCell>
                <mxCell id="201" value="" style="shape=curlyBracket;whiteSpace=wrap;html=1;rounded=1;flipH=1;labelPosition=right;verticalLabelPosition=middle;align=left;verticalAlign=middle;" parent="1" vertex="1">
                    <mxGeometry x="3320" y="3590" width="20" height="120" as="geometry"/>
                </mxCell>
                <mxCell id="202" value="enq_valid：input" style="text;html=1;align=center;verticalAlign=middle;resizable=0;points=[];autosize=1;strokeColor=none;fillColor=none;" parent="1" vertex="1">
                    <mxGeometry x="3160" y="3672.5" width="110" height="30" as="geometry"/>
                </mxCell>
                <mxCell id="203" value="enq_ready：fifo未满" style="text;html=1;align=center;verticalAlign=middle;resizable=0;points=[];autosize=1;strokeColor=none;fillColor=none;" parent="1" vertex="1">
                    <mxGeometry x="3150" y="3702.5" width="130" height="30" as="geometry"/>
                </mxCell>
                <mxCell id="204" value="deq_valid：fifo非空" style="text;html=1;align=center;verticalAlign=middle;resizable=0;points=[];autosize=1;strokeColor=none;fillColor=none;" parent="1" vertex="1">
                    <mxGeometry x="3150" y="3572.5" width="130" height="30" as="geometry"/>
                </mxCell>
                <mxCell id="205" value="deq_ready：有lcrdv" style="text;html=1;align=center;verticalAlign=middle;resizable=0;points=[];autosize=1;strokeColor=none;fillColor=none;" parent="1" vertex="1">
                    <mxGeometry x="3150" y="3602.5" width="130" height="30" as="geometry"/>
                </mxCell>
                <mxCell id="210" value="" style="swimlane;startSize=0;" parent="1" vertex="1">
                    <mxGeometry x="3365" y="3370" width="565" height="160" as="geometry"/>
                </mxCell>
                <mxCell id="215" value="" style="endArrow=classic;html=1;exitX=0.5;exitY=0;exitDx=0;exitDy=0;" parent="210" source="125" edge="1">
                    <mxGeometry width="50" height="50" relative="1" as="geometry">
                        <mxPoint x="304.1700000000001" y="197.5" as="sourcePoint"/>
                        <mxPoint x="304" y="108" as="targetPoint"/>
                    </mxGeometry>
                </mxCell>
                <mxCell id="211" value="" style="swimlane;startSize=0;" parent="1" vertex="1">
                    <mxGeometry x="3365" y="3575" width="565" height="160" as="geometry"/>
                </mxCell>
                <mxCell id="214" value="" style="endArrow=classic;html=1;exitX=0.5;exitY=0;exitDx=0;exitDy=0;entryX=0.5;entryY=1;entryDx=0;entryDy=0;" parent="1" source="143" target="125" edge="1">
                    <mxGeometry width="50" height="50" relative="1" as="geometry">
                        <mxPoint x="3620" y="3780" as="sourcePoint"/>
                        <mxPoint x="3670" y="3730" as="targetPoint"/>
                    </mxGeometry>
                </mxCell>
                <mxCell id="216" value="" style="endArrow=classic;html=1;exitX=0.5;exitY=0;exitDx=0;exitDy=0;" parent="1" source="119" edge="1">
                    <mxGeometry width="50" height="50" relative="1" as="geometry">
                        <mxPoint x="3670.5" y="3402" as="sourcePoint"/>
                        <mxPoint x="3670" y="3280" as="targetPoint"/>
                    </mxGeometry>
                </mxCell>
                <mxCell id="217" value="SRSP" style="whiteSpace=wrap;html=1;" parent="1" vertex="1">
                    <mxGeometry x="2637.5" y="3130" width="120" height="60" as="geometry"/>
                </mxCell>
                <mxCell id="218" value="WDAT" style="whiteSpace=wrap;html=1;" parent="1" vertex="1">
                    <mxGeometry x="2832.5" y="3130" width="120" height="60" as="geometry"/>
                </mxCell>
                <mxCell id="219" value="CRSP" style="whiteSpace=wrap;html=1;" parent="1" vertex="1">
                    <mxGeometry x="3512.5" y="3140" width="120" height="60" as="geometry"/>
                </mxCell>
                <mxCell id="220" value="SNP" style="whiteSpace=wrap;html=1;" parent="1" vertex="1">
                    <mxGeometry x="3707.5" y="3140" width="120" height="60" as="geometry"/>
                </mxCell>
                <mxCell id="221" value="" style="endArrow=none;html=1;" parent="1" edge="1">
                    <mxGeometry width="50" height="50" relative="1" as="geometry">
                        <mxPoint x="2770" y="3275" as="sourcePoint"/>
                        <mxPoint x="2820" y="3225" as="targetPoint"/>
                    </mxGeometry>
                </mxCell>
                <mxCell id="222" value="" style="endArrow=none;html=1;" parent="1" edge="1">
                    <mxGeometry width="50" height="50" relative="1" as="geometry">
                        <mxPoint x="2820" y="3275" as="sourcePoint"/>
                        <mxPoint x="2770" y="3225" as="targetPoint"/>
                    </mxGeometry>
                </mxCell>
                <mxCell id="223" value="" style="endArrow=none;html=1;" parent="1" edge="1">
                    <mxGeometry width="50" height="50" relative="1" as="geometry">
                        <mxPoint x="2675" y="3184.9999999999995" as="sourcePoint"/>
                        <mxPoint x="2725" y="3135" as="targetPoint"/>
                    </mxGeometry>
                </mxCell>
                <mxCell id="224" value="" style="endArrow=none;html=1;" parent="1" edge="1">
                    <mxGeometry width="50" height="50" relative="1" as="geometry">
                        <mxPoint x="2725" y="3184.9999999999995" as="sourcePoint"/>
                        <mxPoint x="2675" y="3135" as="targetPoint"/>
                    </mxGeometry>
                </mxCell>
                <mxCell id="225" value="SRSP" style="whiteSpace=wrap;html=1;" parent="1" vertex="1">
                    <mxGeometry x="2637.5" y="3900" width="120" height="60" as="geometry"/>
                </mxCell>
                <mxCell id="226" value="WDAT" style="whiteSpace=wrap;html=1;" parent="1" vertex="1">
                    <mxGeometry x="2832.5" y="3900" width="120" height="60" as="geometry"/>
                </mxCell>
                <mxCell id="229" value="CRSP" style="whiteSpace=wrap;html=1;" parent="1" vertex="1">
                    <mxGeometry x="3512.5" y="3900" width="120" height="60" as="geometry"/>
                </mxCell>
                <mxCell id="230" value="SNP" style="whiteSpace=wrap;html=1;" parent="1" vertex="1">
                    <mxGeometry x="3707.5" y="3900" width="120" height="60" as="geometry"/>
                </mxCell>
                <mxCell id="231" value="" style="endArrow=none;html=1;" parent="1" edge="1">
                    <mxGeometry width="50" height="50" relative="1" as="geometry">
                        <mxPoint x="3645" y="3274.9999999999995" as="sourcePoint"/>
                        <mxPoint x="3695" y="3224.9999999999995" as="targetPoint"/>
                    </mxGeometry>
                </mxCell>
                <mxCell id="232" value="" style="endArrow=none;html=1;" parent="1" edge="1">
                    <mxGeometry width="50" height="50" relative="1" as="geometry">
                        <mxPoint x="3695" y="3274.9999999999995" as="sourcePoint"/>
                        <mxPoint x="3645" y="3224.9999999999995" as="targetPoint"/>
                    </mxGeometry>
                </mxCell>
                <mxCell id="233" value="" style="endArrow=none;html=1;" parent="1" edge="1">
                    <mxGeometry width="50" height="50" relative="1" as="geometry">
                        <mxPoint x="3180" y="3229.9999999999995" as="sourcePoint"/>
                        <mxPoint x="3230" y="3179.9999999999995" as="targetPoint"/>
                    </mxGeometry>
                </mxCell>
                <mxCell id="234" value="" style="endArrow=none;html=1;" parent="1" edge="1">
                    <mxGeometry width="50" height="50" relative="1" as="geometry">
                        <mxPoint x="3230" y="3229.9999999999995" as="sourcePoint"/>
                        <mxPoint x="3180" y="3179.9999999999995" as="targetPoint"/>
                    </mxGeometry>
                </mxCell>
                <mxCell id="235" value="" style="endArrow=none;html=1;" parent="1" edge="1">
                    <mxGeometry width="50" height="50" relative="1" as="geometry">
                        <mxPoint x="3547.5" y="3194.9999999999995" as="sourcePoint"/>
                        <mxPoint x="3597.5" y="3144.9999999999995" as="targetPoint"/>
                    </mxGeometry>
                </mxCell>
                <mxCell id="236" value="" style="endArrow=none;html=1;" parent="1" edge="1">
                    <mxGeometry width="50" height="50" relative="1" as="geometry">
                        <mxPoint x="3597.5" y="3194.9999999999995" as="sourcePoint"/>
                        <mxPoint x="3547.5" y="3144.9999999999995" as="targetPoint"/>
                    </mxGeometry>
                </mxCell>
                <mxCell id="237" value="" style="endArrow=none;html=1;" parent="1" edge="1">
                    <mxGeometry width="50" height="50" relative="1" as="geometry">
                        <mxPoint x="2870" y="3184.9999999999995" as="sourcePoint"/>
                        <mxPoint x="2920" y="3134.9999999999995" as="targetPoint"/>
                    </mxGeometry>
                </mxCell>
                <mxCell id="238" value="" style="endArrow=none;html=1;" parent="1" edge="1">
                    <mxGeometry width="50" height="50" relative="1" as="geometry">
                        <mxPoint x="2920" y="3184.9999999999995" as="sourcePoint"/>
                        <mxPoint x="2870" y="3134.9999999999995" as="targetPoint"/>
                    </mxGeometry>
                </mxCell>
                <mxCell id="239" value="" style="endArrow=classic;html=1;" parent="1" edge="1">
                    <mxGeometry width="50" height="50" relative="1" as="geometry">
                        <mxPoint x="271" y="1737" as="sourcePoint"/>
                        <mxPoint x="271" y="1787" as="targetPoint"/>
                    </mxGeometry>
                </mxCell>
                <mxCell id="240" value="tx_req" style="text;html=1;align=center;verticalAlign=middle;resizable=0;points=[];autosize=1;strokeColor=none;fillColor=none;" parent="1" vertex="1">
                    <mxGeometry x="246" y="1707" width="60" height="30" as="geometry"/>
                </mxCell>
                <mxCell id="241" value="" style="endArrow=classic;html=1;" parent="1" edge="1">
                    <mxGeometry width="50" height="50" relative="1" as="geometry">
                        <mxPoint x="341" y="1787" as="sourcePoint"/>
                        <mxPoint x="341" y="1737" as="targetPoint"/>
                    </mxGeometry>
                </mxCell>
                <mxCell id="242" value="tx_ack" style="text;html=1;align=center;verticalAlign=middle;resizable=0;points=[];autosize=1;strokeColor=none;fillColor=none;" parent="1" vertex="1">
                    <mxGeometry x="311" y="1707" width="60" height="30" as="geometry"/>
                </mxCell>
                <mxCell id="243" value="" style="endArrow=classic;html=1;" parent="1" edge="1">
                    <mxGeometry width="50" height="50" relative="1" as="geometry">
                        <mxPoint x="406" y="1787.0000000000005" as="sourcePoint"/>
                        <mxPoint x="406" y="1737.0000000000005" as="targetPoint"/>
                    </mxGeometry>
                </mxCell>
                <mxCell id="244" value="rx_req" style="text;html=1;align=center;verticalAlign=middle;resizable=0;points=[];autosize=1;strokeColor=none;fillColor=none;" parent="1" vertex="1">
                    <mxGeometry x="376" y="1707" width="60" height="30" as="geometry"/>
                </mxCell>
                <mxCell id="245" value="" style="endArrow=classic;html=1;" parent="1" edge="1">
                    <mxGeometry width="50" height="50" relative="1" as="geometry">
                        <mxPoint x="461" y="1737.0000000000005" as="sourcePoint"/>
                        <mxPoint x="461" y="1787.0000000000005" as="targetPoint"/>
                    </mxGeometry>
                </mxCell>
                <mxCell id="246" value="rx_ack" style="text;html=1;align=center;verticalAlign=middle;resizable=0;points=[];autosize=1;strokeColor=none;fillColor=none;" parent="1" vertex="1">
                    <mxGeometry x="436" y="1707" width="60" height="30" as="geometry"/>
                </mxCell>
                <mxCell id="247" value="" style="endArrow=none;html=1;" parent="1" edge="1">
                    <mxGeometry width="50" height="50" relative="1" as="geometry">
                        <mxPoint x="3742.5" y="3194.9999999999995" as="sourcePoint"/>
                        <mxPoint x="3792.5" y="3144.9999999999995" as="targetPoint"/>
                    </mxGeometry>
                </mxCell>
                <mxCell id="248" value="" style="endArrow=none;html=1;" parent="1" edge="1">
                    <mxGeometry width="50" height="50" relative="1" as="geometry">
                        <mxPoint x="3792.5" y="3194.9999999999995" as="sourcePoint"/>
                        <mxPoint x="3742.5" y="3144.9999999999995" as="targetPoint"/>
                    </mxGeometry>
                </mxCell>
                <mxCell id="251" value="" style="endArrow=none;html=1;" parent="1" edge="1">
                    <mxGeometry width="50" height="50" relative="1" as="geometry">
                        <mxPoint x="2770" y="3879.9999999999995" as="sourcePoint"/>
                        <mxPoint x="2820" y="3829.9999999999995" as="targetPoint"/>
                    </mxGeometry>
                </mxCell>
                <mxCell id="252" value="" style="endArrow=none;html=1;" parent="1" edge="1">
                    <mxGeometry width="50" height="50" relative="1" as="geometry">
                        <mxPoint x="2820" y="3879.9999999999995" as="sourcePoint"/>
                        <mxPoint x="2770" y="3829.9999999999995" as="targetPoint"/>
                    </mxGeometry>
                </mxCell>
                <mxCell id="253" value="" style="endArrow=none;html=1;" parent="1" edge="1">
                    <mxGeometry width="50" height="50" relative="1" as="geometry">
                        <mxPoint x="3645" y="3874.9999999999995" as="sourcePoint"/>
                        <mxPoint x="3695" y="3824.9999999999995" as="targetPoint"/>
                    </mxGeometry>
                </mxCell>
                <mxCell id="254" value="" style="endArrow=none;html=1;" parent="1" edge="1">
                    <mxGeometry width="50" height="50" relative="1" as="geometry">
                        <mxPoint x="3695" y="3874.9999999999995" as="sourcePoint"/>
                        <mxPoint x="3645" y="3824.9999999999995" as="targetPoint"/>
                    </mxGeometry>
                </mxCell>
                <mxCell id="255" value="" style="endArrow=classic;html=1;exitX=0.5;exitY=1;exitDx=0;exitDy=0;entryX=0.5;entryY=0;entryDx=0;entryDy=0;" parent="1" source="134" target="118" edge="1">
                    <mxGeometry width="50" height="50" relative="1" as="geometry">
                        <mxPoint x="2900" y="3340" as="sourcePoint"/>
                        <mxPoint x="2950" y="3290" as="targetPoint"/>
                    </mxGeometry>
                </mxCell>
                <mxCell id="256" value="" style="endArrow=classic;html=1;exitX=0.5;exitY=1;exitDx=0;exitDy=0;entryX=0.5;entryY=0;entryDx=0;entryDy=0;" parent="1" source="118" target="124" edge="1">
                    <mxGeometry width="50" height="50" relative="1" as="geometry">
                        <mxPoint x="2780" y="3570" as="sourcePoint"/>
                        <mxPoint x="2830" y="3520" as="targetPoint"/>
                    </mxGeometry>
                </mxCell>
                <mxCell id="257" value="" style="endArrow=classic;html=1;exitX=0.5;exitY=1;exitDx=0;exitDy=0;entryX=0.5;entryY=0;entryDx=0;entryDy=0;" parent="1" source="124" target="142" edge="1">
                    <mxGeometry width="50" height="50" relative="1" as="geometry">
                        <mxPoint x="2820" y="3790" as="sourcePoint"/>
                        <mxPoint x="2870" y="3740" as="targetPoint"/>
                    </mxGeometry>
                </mxCell>
                <mxCell id="258" value="" style="endArrow=none;html=1;" parent="1" edge="1">
                    <mxGeometry width="50" height="50" relative="1" as="geometry">
                        <mxPoint x="2670" y="3959.9999999999995" as="sourcePoint"/>
                        <mxPoint x="2720" y="3909.9999999999995" as="targetPoint"/>
                    </mxGeometry>
                </mxCell>
                <mxCell id="259" value="" style="endArrow=none;html=1;" parent="1" edge="1">
                    <mxGeometry width="50" height="50" relative="1" as="geometry">
                        <mxPoint x="2720" y="3959.9999999999995" as="sourcePoint"/>
                        <mxPoint x="2670" y="3909.9999999999995" as="targetPoint"/>
                    </mxGeometry>
                </mxCell>
                <mxCell id="260" value="" style="endArrow=none;html=1;" parent="1" edge="1">
                    <mxGeometry width="50" height="50" relative="1" as="geometry">
                        <mxPoint x="3550" y="3954.9999999999995" as="sourcePoint"/>
                        <mxPoint x="3600" y="3904.9999999999995" as="targetPoint"/>
                    </mxGeometry>
                </mxCell>
                <mxCell id="261" value="" style="endArrow=none;html=1;" parent="1" edge="1">
                    <mxGeometry width="50" height="50" relative="1" as="geometry">
                        <mxPoint x="3600" y="3954.9999999999995" as="sourcePoint"/>
                        <mxPoint x="3550" y="3904.9999999999995" as="targetPoint"/>
                    </mxGeometry>
                </mxCell>
                <mxCell id="262" value="" style="endArrow=none;html=1;" parent="1" edge="1">
                    <mxGeometry width="50" height="50" relative="1" as="geometry">
                        <mxPoint x="2865" y="3954.9999999999995" as="sourcePoint"/>
                        <mxPoint x="2915" y="3904.9999999999995" as="targetPoint"/>
                    </mxGeometry>
                </mxCell>
                <mxCell id="263" value="" style="endArrow=none;html=1;" parent="1" edge="1">
                    <mxGeometry width="50" height="50" relative="1" as="geometry">
                        <mxPoint x="2915" y="3954.9999999999995" as="sourcePoint"/>
                        <mxPoint x="2865" y="3904.9999999999995" as="targetPoint"/>
                    </mxGeometry>
                </mxCell>
                <mxCell id="264" value="" style="endArrow=none;html=1;" parent="1" edge="1">
                    <mxGeometry width="50" height="50" relative="1" as="geometry">
                        <mxPoint x="3740" y="3954.9999999999995" as="sourcePoint"/>
                        <mxPoint x="3790" y="3904.9999999999995" as="targetPoint"/>
                    </mxGeometry>
                </mxCell>
                <mxCell id="265" value="" style="endArrow=none;html=1;" parent="1" edge="1">
                    <mxGeometry width="50" height="50" relative="1" as="geometry">
                        <mxPoint x="3790" y="3954.9999999999995" as="sourcePoint"/>
                        <mxPoint x="3740" y="3904.9999999999995" as="targetPoint"/>
                    </mxGeometry>
                </mxCell>
                <mxCell id="268" value="txsactive" style="text;html=1;align=center;verticalAlign=middle;resizable=0;points=[];autosize=1;strokeColor=none;fillColor=none;" parent="1" vertex="1">
                    <mxGeometry x="96" y="1707" width="70" height="30" as="geometry"/>
                </mxCell>
                <mxCell id="269" value="rxsactive" style="text;html=1;align=center;verticalAlign=middle;resizable=0;points=[];autosize=1;strokeColor=none;fillColor=none;" parent="1" vertex="1">
                    <mxGeometry x="166" y="1707" width="70" height="30" as="geometry"/>
                </mxCell>
                <mxCell id="270" value="" style="endArrow=classic;html=1;" parent="1" edge="1">
                    <mxGeometry width="50" height="50" relative="1" as="geometry">
                        <mxPoint x="130.63" y="1737" as="sourcePoint"/>
                        <mxPoint x="130.63" y="1787" as="targetPoint"/>
                    </mxGeometry>
                </mxCell>
                <mxCell id="271" value="" style="endArrow=classic;html=1;" parent="1" edge="1">
                    <mxGeometry width="50" height="50" relative="1" as="geometry">
                        <mxPoint x="200.63" y="1787" as="sourcePoint"/>
                        <mxPoint x="200.63" y="1737" as="targetPoint"/>
                    </mxGeometry>
                </mxCell>
                <mxCell id="272" value="这组先暂时不用管 Dontcare即可" style="text;html=1;align=center;verticalAlign=middle;resizable=0;points=[];autosize=1;strokeColor=none;fillColor=none;" parent="1" vertex="1">
                    <mxGeometry x="186" y="1672" width="200" height="30" as="geometry"/>
                </mxCell>
                <mxCell id="273" value="chi_master" style="whiteSpace=wrap;html=1;fontFamily=Helvetica;fontSize=11;fontColor=default;" parent="1" vertex="1">
                    <mxGeometry x="216" y="2508" width="120" height="20" as="geometry"/>
                </mxCell>
                <mxCell id="274" value="chi2flit" style="whiteSpace=wrap;html=1;fontFamily=Helvetica;fontSize=11;fontColor=default;" parent="1" vertex="1">
                    <mxGeometry x="216" y="2488" width="120" height="20" as="geometry"/>
                </mxCell>
                <mxCell id="275" value="chi_slave" style="whiteSpace=wrap;html=1;fontFamily=Helvetica;fontSize=11;fontColor=default;" parent="1" vertex="1">
                    <mxGeometry x="216" y="2448" width="120" height="20" as="geometry"/>
                </mxCell>
                <mxCell id="276" value="flit2chi" style="whiteSpace=wrap;html=1;fontFamily=Helvetica;fontSize=11;fontColor=default;" parent="1" vertex="1">
                    <mxGeometry x="216" y="2468" width="120" height="20" as="geometry"/>
                </mxCell>
                <mxCell id="277" value="reqLcrdvCounter 表示已发出lcrdv数量" style="text;html=1;align=center;verticalAlign=middle;resizable=0;points=[];autosize=1;strokeColor=none;fillColor=none;" parent="1" vertex="1">
                    <mxGeometry x="2889" y="2775" width="220" height="26" as="geometry"/>
                </mxCell>
                <mxCell id="278" value="lcrdv必须在未达到上限 已建链 fifo未满的情况下才可以发" style="text;html=1;align=center;verticalAlign=middle;resizable=0;points=[];autosize=1;strokeColor=none;fillColor=none;" parent="1" vertex="1">
                    <mxGeometry x="2852" y="2867" width="318" height="26" as="geometry"/>
                </mxCell>
                <mxCell id="279" value="" style="edgeStyle=none;orthogonalLoop=1;jettySize=auto;html=1;" parent="1" edge="1">
                    <mxGeometry width="100" relative="1" as="geometry">
                        <mxPoint x="2938" y="2869" as="sourcePoint"/>
                        <mxPoint x="3038" y="2807" as="targetPoint"/>
                        <Array as="points"/>
                    </mxGeometry>
                </mxCell>
                <mxCell id="281" value="进队时 counter -1 出队时counter + 1&amp;nbsp;" style="text;html=1;align=center;verticalAlign=middle;resizable=0;points=[];autosize=1;strokeColor=none;fillColor=none;" parent="1" vertex="1">
                    <mxGeometry x="2783" y="2953" width="214" height="26" as="geometry"/>
                </mxCell>
            </root>
        </mxGraphModel>
    </diagram>
</mxfile>